<?xml version="1.0" encoding="UTF-8"?>
<svg id="Layer_2" data-name="Layer 2" xmlns="http://www.w3.org/2000/svg" viewBox="0 0 241.26 171.91">
  <defs>
    <style>
      .cls-1, .cls-2 {
        opacity: .6;
      }

      .cls-1, .cls-3 {
        fill: #41ad49;
      }

      .cls-2, .cls-4 {
        fill: #fff;
      }

      .cls-5 {
        fill: #58479d;
      }
    </style>
  </defs>
  <g id="Layer_1-2" data-name="Layer 1">
    <g>
      <g>
        <path class="cls-3" d="M186.85,68.1c-11.46,6.33-36.96,17.2-85.32,24.11-44.42,6.35-78.61-.79-98.17-7.13C10.68,36.84,49.87,0,97.12,0c41.52,0,76.82,28.45,89.73,68.1Z"/>
        <path class="cls-3" d="M9.26,64.26s-14.87,36.59-6.91,70.33c7.96,33.74,21.39,38.93,40.73,36.96,19.34-1.97,27.81-9.43,29.26-24.16s-9.46-24.4-24.26-26.72-25,9.58-25.3,19.22c-.3,9.64-.78,21.64,21.22,22.26"/>
        <g>
          <polyline class="cls-3" points="47.51 93.83 41.61 118.09 53.4 111.54 62.07 118.09 62.07 93.83"/>
          <polyline class="cls-3" points="126.15 88.22 130.42 112.82 138.61 102.11 149.18 104.66 139.51 82.42"/>
        </g>
        <g>
          <ellipse class="cls-3" cx="187.37" cy="57.43" rx="53.89" ry="33.45"/>
          <ellipse class="cls-3" cx="174.82" cy="23.12" rx="20.91" ry="9.23"/>
        </g>
      </g>
      <g>
        <circle class="cls-2" cx="48.51" cy="145.59" r="17.47"/>
        <circle class="cls-1" cx="48.51" cy="145.59" r="10.27"/>
        <circle class="cls-1" cx="48.51" cy="145.59" r="5.89"/>
      </g>
      <ellipse class="cls-4" cx="203.18" cy="43.72" rx="18.66" ry="7.94"/>
      <circle cx="212.82" cy="44.55" r="3.3"/>
      <g>
        <g>
          <path class="cls-3" d="M88.29.44v93.3c-9.27.83-18.03,1.07-26.22.89-5.07-.11-9.93-.39-14.57-.8-11.16-.97-21.02-2.69-29.41-4.66-5.57-1.3-10.5-2.72-14.74-4.09.16-1.08.34-2.15.55-3.22C11.88,38.21,46.09,4.58,88.29.44Z"/>
          <path class="cls-3" d="M9.26,64.26s-14.87,36.59-6.91,70.33c7.96,33.74,21.39,38.93,40.73,36.96,19.34-1.97,27.81-9.43,29.26-24.16s-9.46-24.4-24.26-26.72-25,9.58-25.3,19.22c-.3,9.64-.78,21.64,21.22,22.26L9.26,64.26Z"/>
          <polygon class="cls-3" points="47.51 93.83 41.61 118.09 53.4 111.54 62.07 118.09 62.07 93.83 47.51 93.83"/>
        </g>
        <g>
          <circle class="cls-2" cx="48.51" cy="145.59" r="17.47"/>
          <circle class="cls-1" cx="48.51" cy="145.59" r="10.27"/>
          <circle class="cls-1" cx="48.51" cy="145.59" r="5.89"/>
        </g>
        <g>
          <path class="cls-5" d="M88.29.44v93.3c-9.27.83-18.03,1.07-26.22.89-5.07-.11-9.93-.39-14.57-.8-11.16-.97-21.02-2.69-29.41-4.66-5.57-1.3-10.5-2.72-14.74-4.09.16-1.08.34-2.15.55-3.22C11.88,38.21,46.09,4.58,88.29.44Z"/>
          <path class="cls-5" d="M9.26,64.26s-14.87,36.59-6.91,70.33c7.96,33.74,21.39,38.93,40.73,36.96,19.34-1.97,27.81-9.43,29.26-24.16s-9.46-24.4-24.26-26.72-25,9.58-25.3,19.22c-.3,9.64-.78,21.64,21.22,22.26L9.26,64.26Z"/>
          <polygon class="cls-5" points="47.51 93.83 41.61 118.09 53.4 111.54 62.07 118.09 62.07 93.83 47.51 93.83"/>
        </g>
      </g>
    </g>
  </g>
</svg>